#N canvas 278 297 240 88 10;
#X declare -stdpath blokas;
#N canvas 181 249 922 340 kontrols 0;
#X obj 13 21 declare -stdpath blokas;
#X obj 13 44 monorack euclidean;
#X obj 136 62 ktrl filt_freq;
#X obj 302 64 ktrl bypass;
#X restore 41 13 pd kontrols;
#N canvas 377 155 605 383 Pisound-galmplaat 0;
#X obj 229 88 r bypass;
#X obj 166 89 adc~ 1;
#X obj 166 330 dac~ 1;
#X obj 231 113 tgl 15 0 empty empty empty 17 7 0 10 -262144 -1 -1 0
1;
#X obj 205 223 *~ 1;
#X obj 167 264 hip~;
#X obj 167 225 *~ 1;
#X obj 160 157 select 0;
#X msg 160 184 1;
#X msg 199 182 0;
#X obj 300 223 + 500;
#X obj 300 200 * 2;
#X obj 345 112 vsl 15 128 0 127 0 0 empty empty empty 0 -9 0 10 -262144
-1 -1 0 1;
#X text 371 152 0-127 midi controllable;
#X obj 300 85 r filt_freq;
#X connect 0 0 3 0;
#X connect 1 0 4 0;
#X connect 1 0 6 0;
#X connect 3 0 4 1;
#X connect 3 0 7 0;
#X connect 4 0 2 0;
#X connect 5 0 2 0;
#X connect 6 0 5 0;
#X connect 7 0 8 0;
#X connect 7 1 9 0;
#X connect 8 0 6 1;
#X connect 9 0 6 1;
#X connect 10 0 5 1;
#X connect 11 0 10 0;
#X connect 12 0 11 0;
#X connect 14 0 11 0;
#X restore 40 56 pd Pisound-galmplaat;
